<svg xmlns="http://www.w3.org/2000/svg" xmlns:xlink="http://www.w3.org/1999/xlink" width="500" zoomAndPan="magnify" viewBox="0 0 375 374.999991" height="500" preserveAspectRatio="xMidYMid meet" version="1.0"><defs><clipPath id="16d4afb6e5"><path d="M 62.875 78.144531 L 312.121094 78.144531 L 312.121094 213.296875 L 62.875 213.296875 Z M 62.875 78.144531 " clip-rule="nonzero"/></clipPath><clipPath id="973fca58ef"><path d="M 62.875 173 L 312.121094 173 L 312.121094 255 L 62.875 255 Z M 62.875 173 " clip-rule="nonzero"/></clipPath><clipPath id="125748f901"><path d="M 62.875 172.765625 L 312.121094 172.765625 L 312.121094 255.164062 L 62.875 255.164062 Z M 62.875 172.765625 " clip-rule="nonzero"/></clipPath><clipPath id="1d9a7e336c"><path d="M 62.875 214 L 312.121094 214 L 312.121094 296.414062 L 62.875 296.414062 Z M 62.875 214 " clip-rule="nonzero"/></clipPath><clipPath id="67d0d83a4d"><path d="M 62.875 213.984375 L 312.121094 213.984375 L 312.121094 296.414062 L 62.875 296.414062 Z M 62.875 213.984375 " clip-rule="nonzero"/></clipPath></defs><g clip-path="url(#16d4afb6e5)"><path stroke-linecap="butt" transform="matrix(0.688808, 0, 0, 0.6886, 62.388888, 77.642997)" fill-opacity="1" fill="#3c78ec" fill-rule="nonzero" stroke-linejoin="round" d="M 181.634277 196.942856 C 180.443361 196.942856 179.235431 196.664892 178.146593 196.086272 L 4.760516 105.520926 C 2.270933 104.22754 0.705729 101.657787 0.705729 98.838434 C 0.705729 96.013408 2.270933 93.449328 4.760516 92.15027 L 178.146593 1.584923 C 180.335611 0.439029 182.944285 0.439029 185.127632 1.584923 L 358.513709 92.15027 C 360.986279 93.449328 362.557154 96.013408 362.557154 98.838434 C 362.557154 101.657787 360.986279 104.22754 358.502367 105.520926 L 185.110619 196.086272 C 184.033123 196.664892 182.819522 196.942856 181.634277 196.942856 Z M 24.541069 98.838434 L 181.634277 180.906011 L 338.716143 98.838434 L 181.634277 16.770857 Z M 24.541069 98.838434 " stroke="#3c78ec" stroke-width="2" stroke-opacity="1" stroke-miterlimit="4"/></g><g clip-path="url(#973fca58ef)"><path fill="#3c78ec" d="M 187.5 254.835938 C 186.679688 254.835938 185.847656 254.640625 185.097656 254.246094 L 65.667969 191.882812 C 63.953125 190.992188 62.875 189.222656 62.875 187.277344 C 62.875 185.332031 63.953125 183.566406 65.667969 182.671875 L 83.035156 173.609375 C 85.570312 172.308594 88.710938 173.257812 90.039062 175.8125 C 91.375 178.363281 90.386719 181.496094 87.84375 182.828125 L 79.292969 187.277344 L 187.5 243.789062 L 295.699219 187.277344 L 287.167969 182.820312 C 284.621094 181.488281 283.632812 178.347656 284.960938 175.804688 C 286.292969 173.257812 289.441406 172.300781 291.972656 173.597656 L 309.335938 182.664062 C 311.039062 183.566406 312.121094 185.332031 312.121094 187.277344 C 312.121094 189.222656 311.039062 190.992188 309.328125 191.882812 L 189.894531 254.246094 C 189.152344 254.640625 188.316406 254.835938 187.5 254.835938 Z M 187.5 254.835938 " fill-opacity="1" fill-rule="nonzero"/></g><g clip-path="url(#125748f901)"><path stroke-linecap="butt" transform="matrix(0.688808, 0, 0, 0.6886, 62.388888, 77.642997)" fill="none" stroke-linejoin="round" d="M 181.634277 257.323536 C 180.443361 257.323536 179.235431 257.039899 178.146593 256.466952 L 4.760516 165.901605 C 2.270933 164.60822 0.705729 162.038467 0.705729 159.213441 C 0.705729 156.388415 2.270933 153.824335 4.760516 152.525276 L 29.973916 139.364512 C 33.654414 137.475488 38.213923 138.853965 40.142073 142.563939 C 42.081565 146.268241 40.646795 150.817781 36.954954 152.752186 L 24.541069 159.213441 L 181.634277 241.281018 L 338.716143 159.213441 L 326.330613 152.740841 C 322.633101 150.806435 321.198331 146.24555 323.126481 142.552594 C 325.060302 138.853965 329.631153 137.464143 333.30598 139.347494 L 358.513709 152.513931 C 360.986279 153.824335 362.557154 156.388415 362.557154 159.213441 C 362.557154 162.038467 360.986279 164.60822 358.502367 165.901605 L 185.110619 256.466952 C 184.033123 257.039899 182.819522 257.323536 181.634277 257.323536 Z M 181.634277 257.323536 " stroke="#3c78ec" stroke-width="5" stroke-opacity="1" stroke-miterlimit="4"/></g><g clip-path="url(#1d9a7e336c)"><path fill="#3c78ec" d="M 187.5 296.414062 C 186.679688 296.414062 185.847656 296.214844 185.097656 295.820312 L 65.667969 233.453125 C 63.953125 232.5625 62.875 230.792969 62.875 228.851562 C 62.875 226.90625 63.953125 225.144531 65.667969 224.246094 L 83.035156 215.183594 C 85.570312 213.875 88.710938 214.839844 90.039062 217.386719 C 91.375 219.933594 90.386719 223.074219 87.84375 224.402344 L 79.292969 228.851562 L 187.5 285.363281 L 295.699219 228.851562 L 287.167969 224.394531 C 284.621094 223.0625 283.632812 219.925781 284.960938 217.378906 C 286.292969 214.832031 289.441406 213.875 291.972656 215.175781 L 309.335938 224.238281 C 311.039062 225.144531 312.121094 226.90625 312.121094 228.851562 C 312.121094 230.792969 311.039062 232.5625 309.328125 233.453125 L 189.894531 295.820312 C 189.152344 296.214844 188.316406 296.414062 187.5 296.414062 Z M 187.5 296.414062 " fill-opacity="1" fill-rule="nonzero"/></g><g clip-path="url(#67d0d83a4d)"><path stroke-linecap="butt" transform="matrix(0.688808, 0, 0, 0.6886, 62.388888, 77.642997)" fill="none" stroke-linejoin="round" d="M 181.634277 317.704215 C 180.443361 317.704215 179.235431 317.414906 178.146593 316.841958 L 4.760516 226.270939 C 2.270933 224.977554 0.705729 222.407801 0.705729 219.588448 C 0.705729 216.763421 2.270933 214.205014 4.760516 212.900283 L 29.973916 199.739519 C 33.654414 197.83915 38.213923 199.240317 40.142073 202.938946 C 42.081565 206.637575 40.646795 211.19846 36.954954 213.127193 L 24.541069 219.588448 L 181.634277 301.656025 L 338.716143 219.588448 L 326.330613 213.115847 C 322.633101 211.181442 321.198331 206.626229 323.126481 202.927601 C 325.060302 199.228972 329.631153 197.83915 333.30598 199.728173 L 358.513709 212.888938 C 360.986279 214.205014 362.557154 216.763421 362.557154 219.588448 C 362.557154 222.407801 360.986279 224.977554 358.502367 226.270939 L 185.110619 316.841958 C 184.033123 317.414906 182.819522 317.704215 181.634277 317.704215 Z M 181.634277 317.704215 " stroke="#3c78ec" stroke-width="8" stroke-opacity="1" stroke-miterlimit="4"/></g></svg>